<svg width="24" height="24" viewBox="0 0 24 24" fill="none" >
<path d="M10.5,3.7c0,.17-.06.23-.23.23H9a1.58,1.58,0,0,0-1.68,1.7c0,.61,0,1.23,0,1.84,0,.29,0,.3.29.3h2.5c.26,0,.28,0,.24.27-.14.9-.28,1.8-.41,2.7,0,.18-.11.23-.27.23h-2c-.33,0-.33,0-.33.33v7.08c0,.37,0,.36-.38.41a6.91,6.91,0,0,0-1,.1H5.21a4.81,4.81,0,0,0-.93-.09c-.45-.06-.45-.05-.45-.5v-7c0-.37,0-.37-.38-.37H1.3C1,11,1,11,1,10.68V8.05c0-.26,0-.28.29-.28H3.55c.2,0,.28-.07.28-.28,0-.69,0-1.38,0-2.06a5.2,5.2,0,0,1,.59-2.6A3.64,3.64,0,0,1,7.08,1.08a9,9,0,0,1,2.49,0c.24,0,.48.06.71.09a.21.21,0,0,1,.22.25Z" stroke="black" stroke-width="2" stroke-linecap="round" stroke-linejoin="round"/>
</svg>
